<svg xmlns="http://www.w3.org/2000/svg" id="Layer_1" width="8.436in" height="11.623in" viewBox="0 0 607.391 836.851"><path id="path516" d="M384.681,0c9.695,2.529,1.106,16.94,2.198,17.982,1.194,1.144,13.547-.699,13.547.013v191.218c0,1.131-5.312,3.584-2.605,6.799l9.315,4.499,188.689-.368c.724,15.123,11.565,12.772,11.565,13.814v170.974h-211.462c-4.219,20.549,4.562,42.051,4.88,60.757.228,13.026-5.478,24.387-5.26,35.976,1.843,96.086,16.088,226.051,5.096,319.671-.534,4.537-2.046,15.517-6.976,15.517h-157.465c-5.032,0-5.402-14.817-7.904-17.105-3.113-2.859-12.339-.267-12.339-.89v-413.927H20.244c-.597-6.57-15.351-19.888-15.606-21.184-.788-3.952-4.638-32.634-4.638-35.062v-128.224h215.961V0h168.725-.005ZM247.46,42.737v204.714l-211.462.051,7.536,13.636,203.901,4.333-6.646,8.985-200.316,4.511c.61,3.203-.876,17.982,0,17.982h202.465v8.972c-14.627-4.88-37.285,4.524-47.222,4.524H40.499l2.834,17.41c66.59,2.491,133.511-3.19,199.606,5.134,1.334,4.537-19.126,8.959-20.232,8.959H51.746c-9.303,0-20.371,7.332-15.745,17.994h211.462v389.171c0,6.036,9.162,22.849,4.511,33.765h13.457l-.164-348.899,9.137-74.025c-3.914,26.471,3.799,53.666,4.727,78.523,3.265,86.821-3.787,174.52-.369,261.328,1.042,26.42,8.642,55.089,4.702,83.072h13.457l8.959-422.911,9.073,422.911h13.457c1.094-39.687-1.334-79.718-.164-119.443,2.555-87.101-1.118-178.536,4.499-265.446.509-7.828,1.703-29.47,9.137-33.549l4.562,418.425h13.457l4.524-422.95h206.964c-2.122-3.635-1.486-17.994-6.748-17.994h-184.47c-1.106,0-21.566-4.41-20.218-8.947l206.964-4.562c-.61-3.203.876-17.982,0-17.982h-164.213c-7.054,0-26.128-9.379-38.213-4.524v-8.972h200.215c5.248,0,4.613-14.322,6.748-17.956-62.422.216-124.971-.076-186.961-4.308-7.701-.521-14.881.458-19.99-7.002l202.465-6.748v-13.458l-202.44-.026-4.562-211.487h-13.457l-6.812,211.513c-10.446,2.999-6.456-9.658-6.697-15.733-2.643-65.23,1.613-130.652-4.524-195.78h-13.457l-4.511,204.816-8.985,6.646-4.537-211.462-13.471-.013c3.723,8.4-4.511,20.676-4.511,24.781v179.971c0,.75-4.423,13.153-8.946,11.221l-4.575-204.663c.673-11.64-14.933-15.123-17.968-4.511h-.053Z" fill="#010101"/></svg>